<svg xmlns="http://www.w3.org/2000/svg" xmlns:xlink="http://www.w3.org/1999/xlink" version="1.1" width="1000" height="1000" viewBox="0 0 1000 1000" xml:space="preserve">
<desc>Created with Fabric.js 3.5.0</desc>
<defs>
</defs>
<rect x="0" y="0" width="100%" height="100%" fill="#ffffff"/>
<g transform="matrix(37.8788 0 0 37.8788 500.0001 500.0001)" id="528441">
<g style="" vector-effect="non-scaling-stroke">
		<g transform="matrix(1 0 0 1 0 0)">
<rect style="stroke: none; stroke-width: 1; stroke-dasharray: none; stroke-linecap: butt; stroke-dashoffset: 0; stroke-linejoin: round; stroke-miterlimit: 2; is-custom-font: none; font-file-url: none; fill: none; fill-rule: evenodd; opacity: 1;" x="-12" y="-12" rx="0" ry="0" width="24" height="24"/>
</g>
		<g transform="matrix(1 0 0 1 0 0)">
<path style="stroke: none; stroke-width: 1; stroke-dasharray: none; stroke-linecap: butt; stroke-dashoffset: 0; stroke-linejoin: round; stroke-miterlimit: 2; is-custom-font: none; font-file-url: none; fill: rgb(153,153,153); fill-rule: evenodd; opacity: 1;" transform=" translate(-100, -204)" d="M 110.9 199 C 110.9 195.744 108.256 193.1 105 193.1 C 105 193.1 95 193.1 95 193.1 C 91.744 193.1 89.1 195.744 89.1 199 C 89.1 199 89.1 209 89.1 209 C 89.1 212.256 91.744 214.9 95 214.9 C 95 214.9 105 214.9 105 214.9 C 108.256 214.9 110.9 212.256 110.9 209 L 110.9 199 Z M 109.1 199 L 109.1 209 C 109.1 211.263 107.263 213.1 105 213.1 L 95 213.1 C 92.737 213.1 90.9 211.263 90.9 209 L 90.9 199 C 90.9 196.737 92.737 194.9 95 194.9 L 105 194.9 C 107.263 194.9 109.1 196.737 109.1 199 Z M 104.89 203.238 C 104.575 201.109 102.891 199.425 100.762 199.11 C 100.524 199.074 100.284 199.057 100.043 199.057 C 97.355 199.057 95.143 201.269 95.143 203.957 C 95.143 206.645 97.355 208.857 100.043 208.857 C 102.731 208.857 104.943 206.645 104.943 203.957 C 104.943 203.716 104.926 203.476 104.89 203.238 Z M 103.11 203.502 C 103.132 203.653 103.143 203.805 103.143 203.957 C 103.143 205.657 101.744 207.057 100.043 207.057 C 98.343 207.057 96.943 205.657 96.943 203.957 C 96.943 202.256 98.343 200.857 100.043 200.857 C 100.195 200.857 100.347 200.868 100.498 200.89 C 101.845 201.09 102.91 202.155 103.11 203.502 Z M 105.5 197.6 C 105.997 197.6 106.4 198.003 106.4 198.5 C 106.4 198.997 105.997 199.4 105.5 199.4 C 105.003 199.4 104.6 198.997 104.6 198.5 C 104.6 198.003 105.003 197.6 105.5 197.6 Z" stroke-linecap="round"/>
</g>
</g>
</g>
</svg>