<svg xmlns="http://www.w3.org/2000/svg" xmlns:xlink="http://www.w3.org/1999/xlink" version="1.1" width="1000" height="1000" viewBox="0 0 1000 1000" xml:space="preserve">
<desc>Created with Fabric.js 3.5.0</desc>
<defs>
</defs>
<rect x="0" y="0" width="100%" height="100%" fill="#ffffff"/>
<g transform="matrix(1.7756 0 0 1.7756 500.0084 500.0097)" id="359409">
<path style="stroke: none; stroke-width: 1; stroke-dasharray: none; stroke-linecap: butt; stroke-dashoffset: 0; stroke-linejoin: miter; stroke-miterlimit: 4; is-custom-font: none; font-file-url: none; fill: rgb(153,153,153); fill-rule: evenodd; opacity: 1;" vector-effect="non-scaling-stroke" transform=" translate(-256.0018, -256.0009)" d="M 353.97 0.43 c 0.03 7.81 2.31 120.68 120.76 127.72 c 0 32.55 0.04 56.15 0.04 87.21 c -8.97 0.52 -77.98 -4.49 -120.93 -42.8 l -0.13 169.78 c 1.63 117.84 -85.09 189.55 -198.44 164.78 c -195.46 -58.47 -130.51 -348.37 65.75 -317.34 c 0 93.59 0.05 -0.03 0.05 93.59 c -81.08 -11.93 -108.2 55.52 -86.65 103.81 c 19.6 43.97 100.33 53.5 128.49 -8.53 c 3.19 -12.14 4.78 -25.98 4.78 -41.52 l 0 -337.13 l 86.28 0.43 z" stroke-linecap="round"/>
</g>
</svg>