<svg xmlns="http://www.w3.org/2000/svg" xmlns:xlink="http://www.w3.org/1999/xlink" version="1.1" width="1000" height="1000" viewBox="0 0 1000 1000" xml:space="preserve">
<desc>Created with Fabric.js 3.5.0</desc>
<defs>
</defs>
<rect x="0" y="0" width="100%" height="100%" fill="#ffffff"/>
<g transform="matrix(9.2305 0 0 9.2305 500.0012 500.001)" id="119011">
<path style="stroke: none; stroke-width: 1; stroke-dasharray: none; stroke-linecap: butt; stroke-dashoffset: 0; stroke-linejoin: miter; stroke-miterlimit: 4; is-custom-font: none; font-file-url: none; fill: rgb(153,153,153); fill-rule: nonzero; opacity: 1;" vector-effect="non-scaling-stroke" transform=" translate(-49.244, -40.0072)" d="M 98.488 9.473 a 42.1 42.1 0 0 1 -11.634 3.189 A 20.078 20.078 0 0 0 95.736 1.5 a 40.35 40.35 0 0 1 -12.8 4.887 A 20.189 20.189 0 0 0 48.007 20.2 a 20.79 20.79 0 0 0 0.468 4.6 A 57.15 57.15 0 0 1 6.857 3.681 a 20.2 20.2 0 0 0 6.2 26.986 a 19.94 19.94 0 0 1 -9.118 -2.487 v 0.22 a 20.284 20.284 0 0 0 16.177 19.841 a 20.152 20.152 0 0 1 -5.294 0.665 A 17.853 17.853 0 0 1 11 48.561 a 20.383 20.383 0 0 0 18.867 14.065 a 40.57 40.57 0 0 1 -25.034 8.612 A 37.819 37.819 0 0 1 0 70.96 a 56.843 56.843 0 0 0 30.974 9.061 c 37.154 0 57.468 -30.777 57.468 -57.455 c 0 -0.893 -0.031 -1.754 -0.074 -2.61 a 40.28 40.28 0 0 0 10.12 -10.483 Z" stroke-linecap="round"/>
</g>
</svg>